<svg width="1200" height="700" viewBox="0 0 1200 700" xmlns="http://www.w3.org/2000/svg" role="img" aria-label="AyuCare">
  <defs>
    <linearGradient id="bg" x1="0" y1="0" x2="1" y2="1">
      <stop offset="0" stop-color="#08362B"/>
      <stop offset="1" stop-color="#0B4E3B"/>
    </linearGradient>
  </defs>
  <rect width="1200" height="700" fill="url(#bg)"/>
  <g opacity="0.2" fill="#8EEBC8">
    <circle cx="180" cy="110" r="38"/>
    <circle cx="1060" cy="620" r="52"/>
    <circle cx="1040" cy="140" r="26"/>
  </g>
  <g transform="translate(260,120)">
    <rect x="130" y="40" width="420" height="500" rx="34" fill="#072B21" stroke="#A8F5D7" stroke-opacity="0.6"/>
    <rect x="165" y="86" width="350" height="370" rx="24" fill="#114636"/>
    <path d="M340 165C410 110 468 170 449 233C433 290 367 305 340 344C313 305 247 290 231 233C212 170 270 110 340 165Z" fill="#84E6BC" fill-opacity="0.35" stroke="#C8FAE4" stroke-width="4"/>
    <rect x="246" y="374" width="188" height="54" rx="13" fill="#0A392C" stroke="#8FE8C7" stroke-opacity="0.65"/>
    <text x="278" y="409" fill="#D8FFF2" font-size="28" font-family="Segoe UI, Arial, sans-serif">AI CARE</text>
  </g>
  <text x="80" y="90" fill="#C8FFEA" font-size="34" font-family="Segoe UI, Arial, sans-serif" letter-spacing="3">AYUCARE</text>
  <text x="80" y="640" fill="#9FDFC4" font-size="22" font-family="Segoe UI, Arial, sans-serif" letter-spacing="2">AI Wellness Assistant | Medicinal Plant Classification | Symptom Support</text>
</svg>
