<svg width="1200" height="700" viewBox="0 0 1200 700" xmlns="http://www.w3.org/2000/svg" role="img" aria-label="RepoinTel">
  <defs>
    <linearGradient id="bg" x1="0" y1="0" x2="1" y2="1">
      <stop offset="0" stop-color="#12212D"/>
      <stop offset="1" stop-color="#204257"/>
    </linearGradient>
  </defs>
  <rect width="1200" height="700" fill="url(#bg)"/>
  <g transform="translate(220,120)">
    <rect x="100" y="65" width="600" height="440" rx="26" fill="#0C1823" stroke="#84D9FF" stroke-opacity="0.6"/>
    <rect x="145" y="110" width="510" height="85" rx="14" fill="#143044"/>
    <circle cx="180" cy="152" r="12" fill="#9BE4FF"/>
    <rect x="205" y="140" width="430" height="24" rx="12" fill="#28516A"/>
    <rect x="145" y="225" width="240" height="245" rx="14" fill="#132A3A"/>
    <rect x="415" y="225" width="240" height="245" rx="14" fill="#132A3A"/>
    <path d="M174 275H356M174 312H356M174 349H356M444 275H626M444 312H626M444 349H626" stroke="#7BCFF7" stroke-opacity="0.9" stroke-width="6" stroke-linecap="round"/>
    <circle cx="322" cy="430" r="26" fill="none" stroke="#BEEBFF" stroke-width="5"/>
    <path d="M340 448L364 472" stroke="#BEEBFF" stroke-width="6" stroke-linecap="round"/>
  </g>
  <text x="80" y="90" fill="#CBF0FF" font-size="34" font-family="Segoe UI, Arial, sans-serif" letter-spacing="3">REPOINTEL</text>
  <text x="80" y="640" fill="#9CC8DC" font-size="22" font-family="Segoe UI, Arial, sans-serif" letter-spacing="2">GitHub Repository Intelligence | LLM Summaries | Architecture Insights</text>
</svg>
